<svg width="18" height="18" viewBox="0 0 18 18" fill="none" xmlns="http://www.w3.org/2000/svg">
<path d="M17.6418 9.21584C17.6418 8.608 17.583 7.98057 17.4849 7.39234H8.99492V10.8629H13.8576C13.6615 11.9805 13.0144 12.9609 12.0537 13.5883L14.9556 15.8432C16.6614 14.255 17.6418 11.9413 17.6418 9.21584Z" fill="#4280EF"/>
<path d="M8.99495 18C11.4263 18 13.4655 17.1961 14.9556 15.8236L12.0537 13.5883C11.2498 14.1373 10.2106 14.451 8.99495 14.451C6.64205 14.451 4.6617 12.8628 3.93622 10.7452L0.955886 13.0393C2.48527 16.0785 5.58325 18 8.99495 18Z" fill="#34A353"/>
<path d="M3.93618 10.7256C3.56364 9.60801 3.56364 8.39234 3.93618 7.27472L0.955842 4.96104C-0.318643 7.51001 -0.318599 10.5099 0.955886 13.0393L3.93618 10.7256Z" fill="#F6B704"/>
<path d="M8.99495 3.5689C10.2694 3.54929 11.5243 4.03948 12.4459 4.92182L15.0144 2.33363C13.387 0.804248 11.2302 -0.0192653 8.99495 0.000342207C5.58325 0.000342207 2.48523 1.92188 0.955842 4.96104L3.93618 7.27472C4.66165 5.1375 6.64205 3.5689 8.99495 3.5689Z" fill="#E54335"/>
</svg>
