<svg width="24" height="24" viewBox="0 0 24 24" fill="none" xmlns="http://www.w3.org/2000/svg">
<path d="M19.1429 8.85707C19.1429 12.7699 12.0714 22.2142 12.0714 22.2142C12.0714 22.2142 5 12.7699 5 8.85707C5 6.98161 5.74502 5.18297 7.07117 3.85682C8.39732 2.53067 10.196 1.78564 12.0714 1.78564C13.9469 1.78564 15.7455 2.53067 17.0717 3.85682C18.3978 5.18297 19.1429 6.98161 19.1429 8.85707V8.85707Z" stroke="white" stroke-width="2" stroke-linecap="round" stroke-linejoin="round"/>
<path d="M12.0715 11.2143C13.3733 11.2143 14.4286 10.159 14.4286 8.85714C14.4286 7.55533 13.3733 6.5 12.0715 6.5C10.7697 6.5 9.71436 7.55533 9.71436 8.85714C9.71436 10.159 10.7697 11.2143 12.0715 11.2143Z" stroke="white" stroke-width="2" stroke-linecap="round" stroke-linejoin="round"/>
</svg>
