<svg width="402" height="874" viewBox="0 0 402 874" fill="none" xmlns="http://www.w3.org/2000/svg">
<g clip-path="url(#clip0_128_914)">
<rect width="402" height="874" fill="#131315"/>
<rect x="63.6732" y="725.627" width="145.742" height="187.383" rx="33.3125" fill="url(#paint0_linear_128_914)"/>
<path d="M1 0H402V876H1V0Z" fill="url(#paint1_linear_128_914)"/>
<path d="M1 0H402V876H1V0Z" fill="url(#paint2_linear_128_914)"/>
<path d="M106.623 527.634C121.906 517.392 146.685 517.392 161.968 527.634L536.724 778.783C551.412 788.627 559.659 801.979 559.649 815.899L559.479 1053.16C559.468 1067.64 541.961 1079.37 520.362 1079.38L-252.514 1079.62C-274.142 1079.63 -291.678 1067.88 -291.668 1053.38L-291.49 805.288C-291.485 798.336 -287.362 791.67 -280.028 786.755L106.623 527.634Z" fill="url(#paint3_linear_128_914)"/>
<path d="M106.623 527.634C121.906 517.392 146.685 517.392 161.968 527.634L536.724 778.783C551.412 788.627 559.659 801.979 559.649 815.899L559.479 1053.16C559.468 1067.64 541.961 1079.37 520.362 1079.38L-252.514 1079.62C-274.142 1079.63 -291.678 1067.88 -291.668 1053.38L-291.49 805.288C-291.485 798.336 -287.362 791.67 -280.028 786.755L106.623 527.634Z" fill="url(#paint4_linear_128_914)"/>
<rect x="63.6741" y="725.627" width="145.742" height="187.383" rx="33.3125" fill="url(#paint7_linear_128_914)"/>
<rect x="53.2639" y="715.217" width="166.562" height="208.203" rx="43.7227" stroke="url(#paint8_linear_128_914)" stroke-opacity="0.22" stroke-width="20.8203"/>
<path d="M106.624 527.634C121.907 517.392 146.686 517.392 161.969 527.634L536.725 778.783C551.413 788.627 559.66 801.979 559.65 815.9L559.48 1053.16C559.469 1067.64 541.962 1079.37 520.363 1079.38L-252.513 1079.62C-274.141 1079.63 -291.677 1067.88 -291.667 1053.38L-291.489 805.288C-291.484 798.336 -287.361 791.67 -280.027 786.755L106.624 527.634Z" fill="url(#paint9_linear_128_914)"/>
<path d="M106.624 527.634C121.907 517.392 146.686 517.392 161.969 527.634L536.725 778.783C551.413 788.627 559.66 801.979 559.65 815.9L559.48 1053.16C559.469 1067.64 541.962 1079.37 520.363 1079.38L-252.513 1079.62C-274.141 1079.63 -291.677 1067.88 -291.667 1053.38L-291.489 805.288C-291.484 798.336 -287.361 791.67 -280.027 786.755L106.624 527.634Z" fill="url(#paint10_linear_128_914)"/>
<rect opacity="0.2" x="53.2649" y="715.217" width="166.562" height="208.203" rx="43.7227" fill="url(#paint15_linear_128_914)" stroke="url(#paint16_linear_128_914)" stroke-width="20.8203"/>
<ellipse cx="133.25" cy="133.25" rx="133.25" ry="133.25" transform="matrix(1 -8.74228e-08 -8.74228e-08 -1 266 240.5)" fill="url(#paint17_linear_128_914)"/>
</g>
<defs>
<linearGradient id="paint0_linear_128_914" x1="-57.0846" y1="1033.77" x2="232.318" y2="696.478" gradientUnits="userSpaceOnUse">
<stop stop-color="#AB966E"/>
<stop offset="1" stop-color="#13437C"/>
</linearGradient>
<linearGradient id="paint1_linear_128_914" x1="0.999997" y1="885.838" x2="665.271" y2="573.309" gradientUnits="userSpaceOnUse">
<stop/>
<stop offset="1" stop-color="#001A3A"/>
</linearGradient>
<linearGradient id="paint2_linear_128_914" x1="610.979" y1="-227.5" x2="-4.67368" y2="10.4248" gradientUnits="userSpaceOnUse">
<stop stop-color="#FEBF65" stop-opacity="0.6"/>
<stop offset="1" stop-color="#00041E"/>
</linearGradient>
<linearGradient id="paint3_linear_128_914" x1="453.322" y1="722.89" x2="57.44" y2="1313.61" gradientUnits="userSpaceOnUse">
<stop stop-color="white" stop-opacity="0.2"/>
<stop offset="1" stop-color="white" stop-opacity="0"/>
</linearGradient>
<linearGradient id="paint4_linear_128_914" x1="4.16478" y1="896.902" x2="434.659" y2="434.732" gradientUnits="userSpaceOnUse">
<stop offset="0.0274966"/>
<stop offset="1" stop-color="#FEC975"/>
</linearGradient>
<linearGradient id="paint7_linear_128_914" x1="-266.499" y1="1271.67" x2="254.009" y2="724.094" gradientUnits="userSpaceOnUse">
<stop stop-color="#AB966E"/>
<stop offset="1" stop-color="#00011D"/>
</linearGradient>
<linearGradient id="paint8_linear_128_914" x1="124.923" y1="807.375" x2="208.204" y2="709.52" gradientUnits="userSpaceOnUse">
<stop stop-color="#413F67"/>
<stop offset="1" stop-color="#BC9557"/>
</linearGradient>
<linearGradient id="paint9_linear_128_914" x1="453.323" y1="722.89" x2="57.4409" y2="1313.61" gradientUnits="userSpaceOnUse">
<stop stop-color="white" stop-opacity="0.2"/>
<stop offset="1" stop-color="white" stop-opacity="0"/>
</linearGradient>
<linearGradient id="paint10_linear_128_914" x1="-6.24439" y1="903.149" x2="430.96" y2="431.974" gradientUnits="userSpaceOnUse">
<stop offset="0.0274966"/>
<stop offset="1" stop-color="#FEC975"/>
</linearGradient>
<linearGradient id="paint15_linear_128_914" x1="-266.498" y1="1271.67" x2="254.01" y2="724.094" gradientUnits="userSpaceOnUse">
<stop stop-color="#AB966E"/>
<stop offset="1" stop-color="#000018"/>
</linearGradient>
<linearGradient id="paint16_linear_128_914" x1="124.924" y1="807.375" x2="237.353" y2="694.945" gradientUnits="userSpaceOnUse">
<stop stop-color="#02001F"/>
<stop offset="1" stop-color="#BC9557"/>
</linearGradient>
<linearGradient id="paint17_linear_128_914" x1="58.3111" y1="269.88" x2="197.513" y2="53.1842" gradientUnits="userSpaceOnUse">
<stop stop-color="#FC8814"/>
<stop offset="1" stop-color="#FFEEA9"/>
</linearGradient>
<clipPath id="clip0_128_914">
<rect width="402" height="874" fill="white"/>
</clipPath>
</defs>
</svg>
